<svg xmlns="http://www.w3.org/2000/svg" width="24" height="24" viewBox="196 1085 24 24" fill="none" data-figma="Icon/ArchiveTray" data-asal="Element"><g id="Vector_141">
<path fill-rule="evenodd" clip-rule="evenodd" d="M196 1087C196 1085.9 196.895 1085 198 1085H218C219.105 1085 220 1085.9 220 1087V1107C220 1108.1 219.105 1109 218 1109H198C196.895 1109 196 1108.1 196 1107V1087ZM218 1087H198V1107H218V1087Z" fill="currentColor" />
<path fill-rule="evenodd" clip-rule="evenodd" d="M203.055 1095.06C203.446 1094.66 204.079 1094.66 204.47 1095.06L208 1098.59L211.53 1095.06C211.921 1094.66 212.554 1094.66 212.945 1095.06C213.335 1095.45 213.335 1096.08 212.945 1096.47L208.707 1100.71C208.52 1100.89 208.265 1101 208 1101C207.735 1101 207.48 1100.89 207.293 1100.71L203.055 1096.47C202.665 1096.08 202.665 1095.45 203.055 1095.06Z" fill="currentColor" />
<path fill-rule="evenodd" clip-rule="evenodd" d="M208 1089C208.552 1089 209 1089.45 209 1090V1100C209 1100.55 208.552 1101 208 1101C207.448 1101 207 1100.55 207 1100V1090C207 1089.45 207.448 1089 208 1089Z" fill="currentColor" />
<path fill-rule="evenodd" clip-rule="evenodd" d="M196 1101C196 1100.45 196.448 1100 197 1100H201.586C202.116 1100 202.624 1100.21 203 1100.59L205.414 1103H210.586L213 1100.59C213.376 1100.21 213.884 1100 214.414 1100H219C219.552 1100 220 1100.45 220 1101C220 1101.55 219.552 1102 219 1102H214.414L211.999 1104.42C211.623 1104.79 211.115 1105 210.586 1105H205.414C204.885 1105 204.377 1104.79 204.001 1104.42L201.586 1102H197C196.448 1102 196 1101.55 196 1101Z" fill="currentColor" />
</g>
</svg>
