<svg xmlns="http://www.w3.org/2000/svg" width="32" height="32" viewBox="240 571 32 32" fill="none" data-figma="Icon/Nav/CreditCard" data-asal="Element"><path id="Vector_18" d="M268 577H244C243.47 577 242.961 577.211 242.586 577.586C242.211 577.961 242 578.47 242 579V595C242 595.53 242.211 596.039 242.586 596.414C242.961 596.789 243.47 597 244 597H268C268.53 597 269.039 596.789 269.414 596.414C269.789 596.039 270 595.53 270 595V579C270 578.47 269.789 577.961 269.414 577.586C269.039 577.211 268.53 577 268 577ZM268 579V582H244V579H268ZM268 595H244V584H268V595ZM266 592C266 592.265 265.895 592.52 265.707 592.707C265.52 592.895 265.265 593 265 593H261C260.735 593 260.48 592.895 260.293 592.707C260.105 592.52 260 592.265 260 592C260 591.735 260.105 591.48 260.293 591.293C260.48 591.105 260.735 591 261 591H265C265.265 591 265.52 591.105 265.707 591.293C265.895 591.48 266 591.735 266 592ZM258 592C258 592.265 257.895 592.52 257.707 592.707C257.52 592.895 257.265 593 257 593H255C254.735 593 254.48 592.895 254.293 592.707C254.105 592.52 254 592.265 254 592C254 591.735 254.105 591.48 254.293 591.293C254.48 591.105 254.735 591 255 591H257C257.265 591 257.52 591.105 257.707 591.293C257.895 591.48 258 591.735 258 592Z" fill="currentColor" />
</svg>
